<svg xmlns="http://www.w3.org/2000/svg" viewBox="0 0 500 500"><g id="freepik--background-simple--inject-118"><path d="M429.22,294.44a225.14,225.14,0,0,0-8.65-38.79c-4.29-14-9.29-28.11-8.77-42.71.37-10.29,3.48-20.27,5-30.46,2.49-16.29.95-33.06-3.34-49-3.09-11.45-7.67-22.67-15-32-6.56-8.35-15.14-15-24.38-20.18-24.42-13.81-53-18.16-81-20-26.88-1.8-54.31-1.47-80.18,6a122.38,122.38,0,0,0-75.14,61.84c-16.63,32.56-26.25,69.15-49.55,98-12.3,15.23-28.34,28.18-35.38,46.44-10.07,26.11,2.44,57.57,25.26,73.77,14.39,10.22,31.82,15.1,47.46,23.29,14.43,7.55,27.25,17.87,41.46,25.83C219.21,425.7,284,420,341.63,404.24c28.82-7.85,59-19.48,75.54-44.36C429.85,340.77,432,317.62,429.22,294.44Z" style="fill:#92E3A9"></path><path d="M429.22,294.44a225.14,225.14,0,0,0-8.65-38.79c-4.29-14-9.29-28.11-8.77-42.71.37-10.29,3.48-20.27,5-30.46,2.49-16.29.95-33.06-3.34-49-3.09-11.45-7.67-22.67-15-32-6.56-8.35-15.14-15-24.38-20.18-24.42-13.81-53-18.16-81-20-26.88-1.8-54.31-1.47-80.18,6a122.38,122.38,0,0,0-75.14,61.84c-16.63,32.56-26.25,69.15-49.55,98-12.3,15.23-28.34,28.18-35.38,46.44-10.07,26.11,2.44,57.57,25.26,73.77,14.39,10.22,31.82,15.1,47.46,23.29,14.43,7.55,27.25,17.87,41.46,25.83C219.21,425.7,284,420,341.63,404.24c28.82-7.85,59-19.48,75.54-44.36C429.85,340.77,432,317.62,429.22,294.44Z" style="fill:#fff;opacity:0.8"></path></g><g id="freepik--Shadow--inject-118"><ellipse cx="256.28" cy="424.23" rx="168.79" ry="11.62" style="fill:#263238"></ellipse></g><g id="freepik--Resume--inject-118"><rect x="126.79" y="105.78" width="246.68" height="317.51" style="fill:#fff;stroke:#263238;stroke-linecap:round;stroke-linejoin:round;stroke-width:0.9874879999999999px"></rect><rect x="126.79" y="105.78" width="39.35" height="317.51" style="fill:#92E3A9;mix-blend-mode:multiply"></rect><rect x="243.01" y="152.69" width="75.65" height="8.9" style="fill:#92E3A9;stroke:#263238;stroke-linecap:round;stroke-linejoin:round;stroke-width:0.9874879999999999px"></rect><rect x="157.83" y="228.52" width="207.37" height="8.9" style="fill:#92E3A9"></rect><rect x="157.83" y="350.84" width="207.37" height="8.9" style="fill:#92E3A9"></rect><rect x="243.01" y="168.02" width="47.68" height="8.9" style="fill:#92E3A9;stroke:#263238;stroke-linecap:round;stroke-linejoin:round;stroke-width:0.9874879999999999px"></rect><rect x="243.01" y="183.03" width="47.68" height="8.9" style="fill:#92E3A9;stroke:#263238;stroke-linecap:round;stroke-linejoin:round;stroke-width:0.9874879999999999px"></rect><rect x="231.54" y="247.22" width="4.91" height="4.91" style="fill:#92E3A9;stroke:#263238;stroke-linecap:round;stroke-linejoin:round;stroke-width:0.9874879999999999px"></rect><rect x="231.54" y="310.37" width="4.91" height="4.91" style="fill:#92E3A9;stroke:#263238;stroke-linecap:round;stroke-linejoin:round;stroke-width:0.9874879999999999px"></rect><rect x="300.83" y="247.22" width="4.91" height="4.91" style="fill:#92E3A9;stroke:#263238;stroke-linecap:round;stroke-linejoin:round;stroke-width:0.9874879999999999px"></rect><rect x="300.83" y="310.37" width="4.91" height="4.91" style="fill:#92E3A9;stroke:#263238;stroke-linecap:round;stroke-linejoin:round;stroke-width:0.9874879999999999px"></rect><rect x="126.79" y="105.78" width="246.68" height="16.15" style="fill:#263238;stroke:#263238;stroke-linecap:round;stroke-linejoin:round;stroke-width:0.9874879999999999px"></rect><path d="M287.83,250.63H244.41a1.4,1.4,0,0,1-1.4-1.4h0a1.4,1.4,0,0,1,1.4-1.4h43.42a1.4,1.4,0,0,1,1.4,1.4h0A1.4,1.4,0,0,1,287.83,250.63Z" style="fill:#263238"></path><path d="M287.83,257.64H244.41a1.41,1.41,0,0,1-1.4-1.41h0a1.4,1.4,0,0,1,1.4-1.4h43.42a1.4,1.4,0,0,1,1.4,1.4h0A1.41,1.41,0,0,1,287.83,257.64Z" style="fill:#263238"></path><path d="M287.83,264.64H244.41a1.4,1.4,0,0,1-1.4-1.4h0a1.4,1.4,0,0,1,1.4-1.4h43.42a1.4,1.4,0,0,1,1.4,1.4h0A1.4,1.4,0,0,1,287.83,264.64Z" style="fill:#263238"></path><path d="M287.83,271.64H244.41a1.4,1.4,0,0,1-1.4-1.4h0a1.4,1.4,0,0,1,1.4-1.4h43.42a1.4,1.4,0,0,1,1.4,1.4h0A1.4,1.4,0,0,1,287.83,271.64Z" style="fill:#263238"></path><path d="M287.83,278.64H244.41a1.4,1.4,0,0,1-1.4-1.4h0a1.4,1.4,0,0,1,1.4-1.4h43.42a1.4,1.4,0,0,1,1.4,1.4h0A1.4,1.4,0,0,1,287.83,278.64Z" style="fill:#263238"></path><path d="M353.51,250.63H310.09a1.4,1.4,0,0,1-1.4-1.4h0a1.4,1.4,0,0,1,1.4-1.4h43.42a1.4,1.4,0,0,1,1.4,1.4h0A1.4,1.4,0,0,1,353.51,250.63Z" style="fill:#263238"></path><path d="M353.51,257.64H310.09a1.41,1.41,0,0,1-1.4-1.41h0a1.4,1.4,0,0,1,1.4-1.4h43.42a1.4,1.4,0,0,1,1.4,1.4h0A1.41,1.41,0,0,1,353.51,257.64Z" style="fill:#263238"></path><path d="M353.51,264.64H310.09a1.4,1.4,0,0,1-1.4-1.4h0a1.4,1.4,0,0,1,1.4-1.4h43.42a1.4,1.4,0,0,1,1.4,1.4h0A1.4,1.4,0,0,1,353.51,264.64Z" style="fill:#263238"></path><path d="M353.51,271.64H310.09a1.4,1.4,0,0,1-1.4-1.4h0a1.4,1.4,0,0,1,1.4-1.4h43.42a1.4,1.4,0,0,1,1.4,1.4h0A1.4,1.4,0,0,1,353.51,271.64Z" style="fill:#263238"></path><path d="M353.51,278.64H310.09a1.4,1.4,0,0,1-1.4-1.4h0a1.4,1.4,0,0,1,1.4-1.4h43.42a1.4,1.4,0,0,1,1.4,1.4h0A1.4,1.4,0,0,1,353.51,278.64Z" style="fill:#263238"></path><path d="M287.83,312.73H244.41a1.41,1.41,0,0,1-1.4-1.41h0a1.4,1.4,0,0,1,1.4-1.4h43.42a1.4,1.4,0,0,1,1.4,1.4h0A1.41,1.41,0,0,1,287.83,312.73Z" style="fill:#263238"></path><path d="M287.83,319.73H244.41a1.4,1.4,0,0,1-1.4-1.4h0a1.4,1.4,0,0,1,1.4-1.4h43.42a1.4,1.4,0,0,1,1.4,1.4h0A1.4,1.4,0,0,1,287.83,319.73Z" style="fill:#263238"></path><path d="M287.83,326.73H244.41a1.4,1.4,0,0,1-1.4-1.4h0a1.4,1.4,0,0,1,1.4-1.4h43.42a1.4,1.4,0,0,1,1.4,1.4h0A1.4,1.4,0,0,1,287.83,326.73Z" style="fill:#263238"></path><path d="M287.83,333.73H244.41a1.4,1.4,0,0,1-1.4-1.4h0a1.4,1.4,0,0,1,1.4-1.4h43.42a1.4,1.4,0,0,1,1.4,1.4h0A1.4,1.4,0,0,1,287.83,333.73Z" style="fill:#263238"></path><path d="M287.83,340.74H244.41a1.4,1.4,0,0,1-1.4-1.4h0a1.4,1.4,0,0,1,1.4-1.4h43.42a1.4,1.4,0,0,1,1.4,1.4h0A1.4,1.4,0,0,1,287.83,340.74Z" style="fill:#263238"></path><path d="M353.51,312.73H310.09a1.41,1.41,0,0,1-1.4-1.41h0a1.4,1.4,0,0,1,1.4-1.4h43.42a1.4,1.4,0,0,1,1.4,1.4h0A1.41,1.41,0,0,1,353.51,312.73Z" style="fill:#263238"></path><path d="M353.51,319.73H310.09a1.4,1.4,0,0,1-1.4-1.4h0a1.4,1.4,0,0,1,1.4-1.4h43.42a1.4,1.4,0,0,1,1.4,1.4h0A1.4,1.4,0,0,1,353.51,319.73Z" style="fill:#263238"></path><path d="M353.51,326.73H310.09a1.4,1.4,0,0,1-1.4-1.4h0a1.4,1.4,0,0,1,1.4-1.4h43.42a1.4,1.4,0,0,1,1.4,1.4h0A1.4,1.4,0,0,1,353.51,326.73Z" style="fill:#263238"></path><path d="M353.51,333.73H310.09a1.4,1.4,0,0,1-1.4-1.4h0a1.4,1.4,0,0,1,1.4-1.4h43.42a1.4,1.4,0,0,1,1.4,1.4h0A1.4,1.4,0,0,1,353.51,333.73Z" style="fill:#263238"></path><path d="M353.51,340.74H310.09a1.4,1.4,0,0,1-1.4-1.4h0a1.4,1.4,0,0,1,1.4-1.4h43.42a1.4,1.4,0,0,1,1.4,1.4h0A1.4,1.4,0,0,1,353.51,340.74Z" style="fill:#263238"></path><path d="M353.51,372.7H310.09a1.4,1.4,0,0,1-1.4-1.4h0a1.4,1.4,0,0,1,1.4-1.4h43.42a1.4,1.4,0,0,1,1.4,1.4h0A1.4,1.4,0,0,1,353.51,372.7Z" style="fill:#263238"></path><path d="M353.51,379.7H310.09a1.4,1.4,0,0,1-1.4-1.4h0a1.4,1.4,0,0,1,1.4-1.4h43.42a1.4,1.4,0,0,1,1.4,1.4h0A1.4,1.4,0,0,1,353.51,379.7Z" style="fill:#263238"></path><path d="M353.51,386.71H310.09a1.4,1.4,0,0,1-1.4-1.4h0a1.4,1.4,0,0,1,1.4-1.4h43.42a1.4,1.4,0,0,1,1.4,1.4h0A1.4,1.4,0,0,1,353.51,386.71Z" style="fill:#263238"></path><rect x="308.69" y="390.91" width="46.22" height="2.8" rx="1.4" style="fill:#263238"></rect><path d="M353.51,400.71H310.09a1.4,1.4,0,0,1-1.4-1.4h0a1.4,1.4,0,0,1,1.4-1.4h43.42a1.4,1.4,0,0,1,1.4,1.4h0A1.4,1.4,0,0,1,353.51,400.71Z" style="fill:#263238"></path><path d="M349.31,291.25a5.6,5.6,0,0,0-5.52,4.67h-6.7a5.6,5.6,0,0,0-11,0h-6.7a5.6,5.6,0,0,0-11,0H301.6a5.59,5.59,0,0,0-11,0h-6.71a5.59,5.59,0,0,0-11,0h-6.71a5.59,5.59,0,0,0-11,0h-6.71a5.6,5.6,0,1,0,0,1.87h6.71a5.59,5.59,0,0,0,11,0h6.71a5.59,5.59,0,0,0,11,0h6.71a5.59,5.59,0,0,0,11,0h6.71a5.6,5.6,0,0,0,11,0h6.7a5.6,5.6,0,0,0,11,0h6.7a5.6,5.6,0,1,0,5.52-6.54Z" style="fill:#263238"></path><path d="M218.69,370.42a9.44,9.44,0,1,0,9.43,9.44A9.43,9.43,0,0,0,218.69,370.42Zm0,14.14a4.71,4.71,0,1,1,4.7-4.7A4.71,4.71,0,0,1,218.69,384.56Z" style="fill:#92E3A9;stroke:#263238;stroke-linecap:round;stroke-linejoin:round;stroke-width:0.9874879999999999px"></path><path d="M221.5,383.61,226,385.8a9.43,9.43,0,0,0-7.28-15.38v4.73a4.7,4.7,0,0,1,2.77,8.46Z" style="fill:#263238;stroke:#263238;stroke-linecap:round;stroke-linejoin:round;stroke-width:0.9874879999999999px"></path><path d="M223.23,401h-9a2.24,2.24,0,0,1-2.25-2.24h0a2.25,2.25,0,0,1,2.25-2.25h9a2.25,2.25,0,0,1,2.25,2.25h0A2.24,2.24,0,0,1,223.23,401Z" style="fill:#92E3A9;stroke:#263238;stroke-linecap:round;stroke-linejoin:round;stroke-width:0.9874879999999999px"></path><path d="M246.82,370.42a9.44,9.44,0,1,0,9.44,9.44A9.43,9.43,0,0,0,246.82,370.42Zm0,14.14a4.71,4.71,0,1,1,4.71-4.7A4.7,4.7,0,0,1,246.82,384.56Z" style="fill:#92E3A9;stroke:#263238;stroke-linecap:round;stroke-linejoin:round;stroke-width:0.9874879999999999px"></path><path d="M256.21,378.87a9.46,9.46,0,0,0-9.34-8.45v4.73a4.71,4.71,0,0,1,4.66,4.71,5,5,0,0,1-.06.54Z" style="fill:#263238;stroke:#263238;stroke-linecap:round;stroke-linejoin:round;stroke-width:0.9874879999999999px"></path><path d="M251.32,401h-9a2.24,2.24,0,0,1-2.25-2.24h0a2.25,2.25,0,0,1,2.25-2.25h9a2.25,2.25,0,0,1,2.25,2.25h0A2.24,2.24,0,0,1,251.32,401Z" style="fill:#92E3A9;stroke:#263238;stroke-linecap:round;stroke-linejoin:round;stroke-width:0.9874879999999999px"></path><path d="M275.12,370.42a9.44,9.44,0,1,0,9.44,9.44A9.43,9.43,0,0,0,275.12,370.42Zm0,14.14a4.71,4.71,0,1,1,4.71-4.7A4.7,4.7,0,0,1,275.12,384.56Z" style="fill:#92E3A9;stroke:#263238;stroke-linecap:round;stroke-linejoin:round;stroke-width:0.9874879999999999px"></path><path d="M275.17,370.42v4.73a4.71,4.71,0,1,1-3.63,7.72l-3.74,2.92a9.43,9.43,0,1,0,7.37-15.37Z" style="fill:#263238;stroke:#263238;stroke-linecap:round;stroke-linejoin:round;stroke-width:0.9874879999999999px"></path><path d="M279.62,401h-9a2.24,2.24,0,0,1-2.25-2.24h0a2.24,2.24,0,0,1,2.25-2.25h9a2.25,2.25,0,0,1,2.25,2.25h0A2.24,2.24,0,0,1,279.62,401Z" style="fill:#92E3A9;stroke:#263238;stroke-linecap:round;stroke-linejoin:round;stroke-width:0.9874879999999999px"></path></g><g id="freepik--Character--inject-118"><circle cx="178.2" cy="182.68" r="42.24" style="fill:#fff"></circle><path d="M191,417.68s6.1,9.17,5.26,12.8-6.2,2.51-8.74-1.4-9-9.75-7.83-12.26S188.72,415.45,191,417.68Z" style="fill:#fff;stroke:#263238;stroke-linecap:round;stroke-linejoin:round;stroke-width:1.0230700000000001px"></path><path d="M164.79,417.17s-7.37,10.94-6.19,13.93,5,2.1,7.92-.6,8.75-10.28,8.75-10.28S170.37,414.18,164.79,417.17Z" style="fill:#fff;stroke:#263238;stroke-linecap:round;stroke-linejoin:round;stroke-width:1.0230700000000001px"></path><path d="M158.6,431.1a9.09,9.09,0,0,0,5.78-1.13c3.36-1.7,9.22-9.37,9.22-9.37" style="fill:none;stroke:#263238;stroke-linecap:round;stroke-linejoin:round;stroke-width:0.767303px"></path><path d="M181.74,418.65s3.19,6,6.78,9.4,5.35,4.37,7.71,2.43" style="fill:none;stroke:#263238;stroke-linecap:round;stroke-linejoin:round;stroke-width:0.767303px"></path><path d="M154.44,280.65s-6.45,13.16-6.16,18.54,1.47,32.6,3.23,41.57S155,372.07,156.2,381s8.89,29.85,8.89,29.85-1.18,4.79-.3,6.28,10.19,3.95,10.48,3.05,1.76-3.59,2-6.28-4.1-31.4-2.34-37.68,2.1-48.5,2.34-52.85-.07-12-.07-12a2.75,2.75,0,0,0,2.94-.89c1.17-1.5,5.05,39.15,6.23,48.72s-1.47,12.26-2.35,18.24-2.93,25.41-2.93,27.81-2.64,10.16-1.47,11.66,3.66,1.25,4.68,1.53c3.06.85,5.45-.48,6.62-.78s2.16-4.63,2.16-4.63,9.42-26.62,11.18-37.69,4.69-31.61,4.11-44.17-4.11-38-4.11-38l-.88-7.48Z" style="fill:#263238;stroke:#263238;stroke-linecap:round;stroke-linejoin:round;stroke-width:1.0230700000000001px"></path><path d="M150.32,295.87s-.57,7.38,4.26,12.2" style="fill:none;stroke:#fff;stroke-linecap:round;stroke-linejoin:round;stroke-width:0.506629px"></path><path d="M150.6,306.37s2.84,4.83,6.25,5.39" style="fill:none;stroke:#fff;stroke-linecap:round;stroke-linejoin:round;stroke-width:0.506629px"></path><path d="M173.3,387.13s-4,9.54-4.54,14.75,4.54,3.18,5.68,6.65-6.81,3.19-5.39,4.05,5.67,1.45,5.67,1.45" style="fill:none;stroke:#fff;stroke-linecap:round;stroke-linejoin:round;stroke-width:0.511535px"></path><path d="M181,410.85c.85-.29,10.5-2,9.36-7.23s-6.81-5.5-6-11.57S194,372.66,194,368.9s-6.24-17.77-6.81-26.45" style="fill:none;stroke:#fff;stroke-linecap:round;stroke-linejoin:round;stroke-width:0.511535px"></path><path d="M194.87,295.31s-6.53,9.36-7.38,10.78,7.66-6.24,7.66-6.24" style="fill:none;stroke:#fff;stroke-linecap:round;stroke-linejoin:round;stroke-width:0.506629px"></path><path d="M177.79,292s.71,6.84.71,8.25v7.79" style="fill:none;stroke:#fff;stroke-linecap:round;stroke-linejoin:round;stroke-width:0.506629px"></path><path d="M178.5,303.8s3.07-.47,3.77-2.83.48-7.08.48-7.08" style="fill:none;stroke:#fff;stroke-linecap:round;stroke-linejoin:round;stroke-width:0.506629px"></path><path d="M237.75,210.84c-3.52-10.27-4.11-15.84-4.4-18.77s-3.52-2.06-3.52-2.06-7,4.11-7,5,3.23,22.59,3.81,26.4a49,49,0,0,1,.59,6.75s-12.32-13.2-15.55-16.43c-2.46-2.47-4.41-4.58-6.5-5.84-1.13-1-3.09-1.37-6.11-2.37-5.28-1.76-10.85-5.87-17.31-5.58a38.4,38.4,0,0,0-12.32,2.94s-9.38,4.4-15.84,7.33a11.52,11.52,0,0,0-2.13,1.24c-1.06-.13-3.27.44-5.79,6.09-3.51,7.92-19.35,28.75-22,36.08s2.93,14.67,9.09,20.53a176.1,176.1,0,0,1,12.61,13.79l7-8.62a40.67,40.67,0,0,0,1,5.69c.88,2.93,3.81,6.16,15.55,7s38.11,2.46,37.25-3.52c-1.21-8.5-.59-35.79-1.17-43.12a123.62,123.62,0,0,1,.29-14.1c1.35,1.71,4,4.88,5.85,6.13,2.64,1.76,13.8,10,18.2,11.78s10.56-1.17,13.2-7S241.27,221.11,237.75,210.84Zm-95.62,48.69c-1.18-4.69-1.76-6.45-1.76-6.45s7.52-8.1,11.14-12.42c.49,11.59.8,24.27.46,26.13a43.51,43.51,0,0,0,.21,9.36C150.22,273.46,143.13,263.57,142.13,259.53Z" style="fill:#92E3A9;stroke:#263238;stroke-linecap:round;stroke-linejoin:round;stroke-width:1.01326px"></path><path d="M237.75,210.84c-3.52-10.27-4.11-15.84-4.4-18.77s-3.52-2.06-3.52-2.06-7,4.11-7,5,3.23,22.59,3.81,26.4a49,49,0,0,1,.59,6.75s-12.32-13.2-15.55-16.43c-2.46-2.47-4.41-4.58-6.5-5.84-1.13-1-3.09-1.37-6.11-2.37-5.28-1.76-10.85-5.87-17.31-5.58a38.4,38.4,0,0,0-12.32,2.94s-9.38,4.4-15.84,7.33a11.52,11.52,0,0,0-2.13,1.24c-1.06-.13-3.27.44-5.79,6.09-3.51,7.92-19.35,28.75-22,36.08s2.93,14.67,9.09,20.53a176.1,176.1,0,0,1,12.61,13.79l7-8.62a40.67,40.67,0,0,0,1,5.69c.88,2.93,3.81,6.16,15.55,7s38.11,2.46,37.25-3.52c-1.21-8.5-.59-35.79-1.17-43.12a123.62,123.62,0,0,1,.29-14.1c1.35,1.71,4,4.88,5.85,6.13,2.64,1.76,13.8,10,18.2,11.78s10.56-1.17,13.2-7S241.27,221.11,237.75,210.84Zm-95.62,48.69c-1.18-4.69-1.76-6.45-1.76-6.45s7.52-8.1,11.14-12.42c.49,11.59.8,24.27.46,26.13a43.51,43.51,0,0,0,.21,9.36C150.22,273.46,143.13,263.57,142.13,259.53Z" style="opacity:0.1"></path><path d="M155.14,239.4a58.91,58.91,0,0,0,4.83-8.79" style="fill:none;stroke:#263238;stroke-linecap:round;stroke-linejoin:round;stroke-width:0.7599429999999999px"></path><path d="M162.52,231.46a11.25,11.25,0,0,1-2.84,3.69" style="fill:none;stroke:#263238;stroke-linecap:round;stroke-linejoin:round;stroke-width:0.7599429999999999px"></path><path d="M227.19,228.15a12.8,12.8,0,0,0,4,9" style="fill:none;stroke:#263238;stroke-linecap:round;stroke-linejoin:round;stroke-width:1.01326px"></path><path d="M228.35,232.88a12.91,12.91,0,0,0,1.71,7.66" style="fill:none;stroke:#263238;stroke-linecap:round;stroke-linejoin:round;stroke-width:1.01326px"></path><path d="M140.37,253.08s-2.16-2.05-7.49-1.16" style="fill:none;stroke:#263238;stroke-linecap:round;stroke-linejoin:round;stroke-width:0.7599429999999999px"></path><path d="M129.93,250.74s1.48-2.37,7.09-.6" style="fill:none;stroke:#263238;stroke-linecap:round;stroke-linejoin:round;stroke-width:0.7599429999999999px"></path><path d="M211.54,220.28c-1.18.29-6.21,8.87-6.21,8.87l12.13-3.25" style="fill:none;stroke:#263238;stroke-linecap:round;stroke-linejoin:round;stroke-width:0.7599429999999999px"></path><path d="M176.71,214.43s2.27,3.12,7.38,1.71,6.81-6.81,6-10.22S172.17,205.35,176.71,214.43Z" style="fill:#fff;stroke:#263238;stroke-linecap:round;stroke-linejoin:round;stroke-width:1.01326px"></path><path d="M171.85,195s-3.43,2.28-3.88,4.34.68,8.67,1.59,10.95,3.89,7.53,3.89,7.53,10.27-5.93,11-6.39,8,3.65,9.59,3-3.88-14.61-6.39-17.57S175.5,192.25,171.85,195Z" style="fill:#fff;stroke:#263238;stroke-linecap:round;stroke-linejoin:round;stroke-width:1.01326px"></path><path d="M170,187.46s.23,3.65.69,9.13S173,206.4,176,208.91s7.3,3.88,8.44,2.51,2.51-7.07,2-10.5-1.14-10.72-1.14-10.72Z" style="fill:#fff;stroke:#263238;stroke-linecap:round;stroke-linejoin:round;stroke-width:1.01326px"></path><path d="M186,196.65c-.34-3.19-.65-6.45-.65-6.45L170,187.46s.23,3.65.69,9.13a23.47,23.47,0,0,0,1.73,7.37Z" style="fill:#92E3A9;opacity:0.5;mix-blend-mode:multiply"></path><path d="M165,182s-3.42-3.42-4.11-.46,2.06,7.54,5.94,6.39v-2.73Z" style="fill:#fff;stroke:#263238;stroke-linecap:round;stroke-linejoin:round;stroke-width:1.01326px"></path><path d="M165,182s-3.42-3.42-4.11-.46,2.06,7.54,5.94,6.39v-2.73Z" style="fill:#92E3A9;stroke:#263238;stroke-linecap:round;stroke-linejoin:round;stroke-width:1.01326px;opacity:0.5"></path><path d="M162,175.82s5.71,15.29,10.73,18.26,15.06,5.7,17.8-5-4.56-26.25-7.07-30.82-11.87-5.93-17.8-1.37S158.38,165.77,162,175.82Z" style="fill:#fff;stroke:#263238;stroke-linecap:round;stroke-linejoin:round;stroke-width:1.01326px"></path><path d="M168.33,162.87a19.55,19.55,0,0,1,7.72-1.8l5.69-4.79c-3.74-2.88-11.09-3.23-16.05.59-5.94,4.57-7.31,8.9-3.66,18.95,0,0,5.71,15.29,10.73,18.26a20.53,20.53,0,0,0,5.72,2.29c-2.42-3.12-6.14-8.08-7.32-10.61-1.8-3.86-2.57-11.83-4.89-16.46S164.73,164.67,168.33,162.87Z" style="fill:#92E3A9;opacity:0.5;mix-blend-mode:multiply"></path><path d="M180.29,171.25s2.28,4.11,1.37,5a2.37,2.37,0,0,1-2.28.46" style="fill:none;stroke:#263238;stroke-linecap:round;stroke-linejoin:round;stroke-width:1.01326px"></path><path d="M169.79,170.57s.46-2.74,3.88-2.74" style="fill:none;stroke:#263238;stroke-linecap:round;stroke-linejoin:round;stroke-width:2.02651px"></path><path d="M171.85,173.31s2.51,1.14,3.42-1.37" style="fill:none;stroke:#263238;stroke-linecap:round;stroke-linejoin:round;stroke-width:1.01326px"></path><path d="M182.8,171.48s2.51,1.14,3.43-1.37" style="fill:none;stroke:#263238;stroke-linecap:round;stroke-linejoin:round;stroke-width:1.01326px"></path><path d="M180.72,166.24a3.42,3.42,0,0,1,4.68-.19" style="fill:none;stroke:#263238;stroke-linecap:round;stroke-linejoin:round;stroke-width:2.02651px"></path><path d="M191,180.29c-2.66-1.16-9-3.72-11.12-2.65-2.74,1.37-9.82,6.17-9.82,9.82,0,0-4.56-6.16-4.56-8.45s1.82-3,.23-5.93-3.89-3.2-3.2-6.62c.63-3.17,6.94-6.53,10-7a10.32,10.32,0,0,0,6.85,2.44c5,0,9.13-3.21,9.13-7.19s-4.09-7.18-9.13-7.18a11.08,11.08,0,0,0-3.31.49c-4.78-.35-5.69,3.19-9,5.13s-5.39,7.66-5.39,7.66l.14,0c-2.42,3.54-2.41,7.81.22,15,0,0,5.71,15.29,10.73,18.26s15.06,5.7,17.8-5A24.77,24.77,0,0,0,191,180.29Z" style="fill:#263238;stroke:#263238;stroke-linecap:round;stroke-linejoin:round;stroke-width:1.01326px"></path><path d="M185.55,180.06s-3.42,4.79-7.3,1.6" style="fill:none;stroke:#fff;stroke-linecap:round;stroke-linejoin:round;stroke-width:1.01326px"></path><path d="M152.68,276.84a13.47,13.47,0,0,1,3.52,3.22,58.66,58.66,0,0,0,3.82,4.7s3.22.29,2.93,1.76-.88,2.34-2.35,2.34-4.69-2.93-4.69-2.93l-4.69,7.33s-4.4-3.22-5.87-7.33Z" style="fill:#fff;stroke:#263238;stroke-linecap:round;stroke-linejoin:round;stroke-width:1.01326px"></path><circle cx="178.2" cy="182.68" r="42.24" style="fill:none;stroke:#263238;stroke-linecap:round;stroke-linejoin:round;stroke-width:2.02651px"></circle><path d="M216.34,174.47s-2.94-.3-3.52,1.46-1.47,3.52-1.47,4.7.29,2.05,1.76,2.34,2.35-1.76,2.35-1.76Z" style="fill:#fff;stroke:#263238;stroke-linecap:round;stroke-linejoin:round;stroke-width:1.01326px"></path><path d="M216.92,172.41s-1.46,7.92-1.46,10.27a8.88,8.88,0,0,0,1.76,5,3.65,3.65,0,0,0,2.05,1.17l1.47-1.76s-1.76,2.35.58,5.28,4.11,2.64,6.16,1.76,2.64-2.05,1.76-5.28-1.46-8.51-2.05-11.73-2.64-4.4-3.81-4.4S219,171.53,216.92,172.41Z" style="fill:#fff;stroke:#263238;stroke-linecap:round;stroke-linejoin:round;stroke-width:1.01326px"></path><path d="M215.85,184.33s-.52-1.82,1.69-2.08,5.86-.65,5.86-.65" style="fill:none;stroke:#263238;stroke-linecap:round;stroke-linejoin:round;stroke-width:0.506629px"></path><path d="M216.11,179.65s5.07-1.31,6.9-1.05" style="fill:none;stroke:#263238;stroke-linecap:round;stroke-linejoin:round;stroke-width:0.506629px"></path><path d="M216.5,176a33.75,33.75,0,0,1,5.73-.52" style="fill:none;stroke:#263238;stroke-linecap:round;stroke-linejoin:round;stroke-width:0.506629px"></path><path d="M218.19,185.76a3.39,3.39,0,0,0,3,.79" style="fill:none;stroke:#263238;stroke-linecap:round;stroke-linejoin:round;stroke-width:0.506629px"></path></g></svg>