<svg xmlns="http://www.w3.org/2000/svg" viewBox="0 0 500 500"><g id="freepik--background-simple--inject-289"><path d="M390.41,101.85s-37.51-35.09-92-24.54-81.14,53.22-114.63,81.48c-17.53,14.8-41.65,19-61.81,29.93-64.46,34.92-64.41,123.63-21.11,160.14,37.48,31.61,87.64,38.17,155.46,21.57s116.1-26,163-83.94S436.22,149.13,390.41,101.85Z" style="fill:#92E3A9"></path><path d="M390.41,101.85s-37.51-35.09-92-24.54-81.14,53.22-114.63,81.48c-17.53,14.8-41.65,19-61.81,29.93-64.46,34.92-64.41,123.63-21.11,160.14,37.48,31.61,87.64,38.17,155.46,21.57s116.1-26,163-83.94S436.22,149.13,390.41,101.85Z" style="fill:#fff;opacity:0.75"></path></g><g id="freepik--Clouds--inject-289"><path d="M409.62,190.79c-5.15-2.81-7.5-.46-9.37-2.81s5.15-8.43-8.91-14.53c0,0-.93-13.12-20.15-13.59S357.13,173,352,176.27s-6.57-1.88-11.72,1.4-2.81,9.84-7,10.78-9.84-4.22-15-.94-5.15,6.1-7.5,6.1-7-1.88-9.84,0-6.09,4.21-6.09,4.21H413.37S414.78,193.61,409.62,190.79Z" style="fill:#92E3A9"></path><g style="opacity:0.5"><path d="M409.62,190.79c-5.15-2.81-7.5-.46-9.37-2.81s5.15-8.43-8.91-14.53c0,0-.93-13.12-20.15-13.59S357.13,173,352,176.27s-6.57-1.88-11.72,1.4-2.81,9.84-7,10.78-9.84-4.22-15-.94-5.15,6.1-7.5,6.1-7-1.88-9.84,0-6.09,4.21-6.09,4.21H413.37S414.78,193.61,409.62,190.79Z" style="fill:#fff"></path></g><path d="M332.39,331.8c-8.33-4.55-12.12-.76-15.14-4.55s8.32-13.63-14.39-23.47c0,0-1.52-21.2-32.56-22s-22.72,21.2-31.05,26.5-10.6-3-18.92,2.28S215.78,326.5,209,328s-15.9-6.81-24.23-1.51-8.33,9.84-12.12,9.84-11.36-3-15.9,0-9.84,6.82-9.84,6.82H338.45S340.72,336.34,332.39,331.8Z" style="fill:#92E3A9"></path><g style="opacity:0.5"><path d="M332.39,331.8c-8.33-4.55-12.12-.76-15.14-4.55s8.32-13.63-14.39-23.47c0,0-1.52-21.2-32.56-22s-22.72,21.2-31.05,26.5-10.6-3-18.92,2.28S215.78,326.5,209,328s-15.9-6.81-24.23-1.51-8.33,9.84-12.12,9.84-11.36-3-15.9,0-9.84,6.82-9.84,6.82H338.45S340.72,336.34,332.39,331.8Z" style="fill:#fff"></path></g><path d="M147.79,243.65c-2.85-1.56-4.15-.26-5.19-1.56s2.85-4.67-4.93-8c0,0-.52-7.27-11.16-7.53s-7.78,7.27-10.63,9.08-3.64-1-6.49.78-1.56,5.45-3.89,6-5.45-2.33-8.3-.52S94.34,245.2,93,245.2s-3.89-1-5.44,0-3.38,2.34-3.38,2.34h65.65S150.64,245.2,147.79,243.65Z" style="fill:#92E3A9"></path><g style="opacity:0.5"><path d="M147.79,243.65c-2.85-1.56-4.15-.26-5.19-1.56s2.85-4.67-4.93-8c0,0-.52-7.27-11.16-7.53s-7.78,7.27-10.63,9.08-3.64-1-6.49.78-1.56,5.45-3.89,6-5.45-2.33-8.3-.52S94.34,245.2,93,245.2s-3.89-1-5.44,0-3.38,2.34-3.38,2.34h65.65S150.64,245.2,147.79,243.65Z" style="fill:#fff"></path></g></g><g id="freepik--Floor--inject-289"><path d="M94.57,421.19s160.89-86.53,343.42,0" style="fill:none;stroke:#263238;stroke-linecap:round;stroke-linejoin:round"></path></g><g id="freepik--Character--inject-289"><path d="M322.81,391.25c0,3.95-22.52,7.16-50.3,7.16s-50.29-3.21-50.29-7.16,22.52-7.16,50.29-7.16S322.81,387.3,322.81,391.25Z" style="fill:#92E3A9"></path><path d="M322.81,391.25c0,3.95-22.52,7.16-50.3,7.16s-50.29-3.21-50.29-7.16,22.52-7.16,50.29-7.16S322.81,387.3,322.81,391.25Z" style="fill:#fff;opacity:0.5"></path><path d="M282.8,166.26c5.27-1.12,9.12-2.82,8.6-7.65s-6.39-8.05-7-10.52,3.44-6.18,2.56-10.9-5.58-10-10.3-9.16c0,0-.78,1.56-1.55-1.79s-3.29-7.5-7.93-5.89c-4.87,1.69-4.87,4.52-6.3,5A122.69,122.69,0,0,0,249.29,131c-3.75,2.07-4.36,8.56-4.92,10.83s-2.35,2.81-5,2.36-5.42-.94-6,1.66-.88,5.1-2.72,4.95-3.9-2.88-5.32-.58-4.2,6.72-7.18,5.36-6.43-6.87-11.22-4.65-5.7,8.5-3.84,9.49,2.78,2.52,2.33,4.13-6.11.13-7.89,3.55,2.43,6.51,2.45,8.37-1,3.56-4.34,4.5-5.69,3.59-3.46,5.33,1.93-.35,2.48-1.6,2.29-1.47,4.31-.45,3.24-1.13,3.24-1.13-.29,2.66,2,3.39,2.66,3.17,0,3.89-4.5,4.47-2.51,6.68,5.14,3.59,10.46,2.14,16.79-10,24.17-5.64,20.59,4.24,27.08,2,8.17-9.09,13.28-10.23,3.75-4.09,2.89-7S277.53,167.38,282.8,166.26Zm3.71-4.78a4.89,4.89,0,0,0,1.33-2.81,2.28,2.28,0,0,1,.8,3.18c-1.05,2.19-3.79,1.38-3.79,1.38Zm-75.41-4.4c-1.15-.2-3.56,4-4.19,2.66s.81-6.63,3.39-6.86,5.29,4.64,5.29,4.64C215.25,159.49,212.25,157.28,211.1,157.08Zm55.56-31.8a3.2,3.2,0,0,0-2.61.4,3.14,3.14,0,0,1,3.56-2.94c2.13.37,2.61,3.5,2.61,3.5A22.75,22.75,0,0,0,266.66,125.28Z" style="fill:#263238"></path><path d="M153.71,266.55l14.9-7.18a14,14,0,0,1,.06,6c-.64,3.73-1.66,7.82-5,7.75S153.71,266.55,153.71,266.55Z" style="fill:#263238;stroke:#263238;stroke-linecap:round;stroke-linejoin:round"></path><path d="M204.18,292.62s5.51-13.32,6.67-15.35,9.59-2.6,8.14,4.29-6.2,10.52-9.21,11A18.43,18.43,0,0,1,204.18,292.62Z" style="fill:#263238;stroke:#263238;stroke-linecap:round;stroke-linejoin:round"></path><path d="M134.22,210.46a21.36,21.36,0,0,0-4.53,6c-1.38,3.15-3,7-3,7s16.19-14.24,25-14.81,11-.51,11-.51-10.92-5.09-16.75-3.53a37.65,37.65,0,0,0-11.14,5.56Z" style="fill:#263238;stroke:#263238;stroke-linecap:round;stroke-linejoin:round"></path><path d="M250.08,186.89s-21.12,5.23-42.21,9.45-41.33-.53-53.07,2.55-20.58,11.57-20.58,11.57,11.15-6.76,18-1,6.13,9.46,1.32,16.36-9,17.15-1.77,21,14.3,17.3,14.24,20.3-1.06,3-1.06,3l-11.27-3.57s6.38,14.14,20.67,16.11,21.41-3.55,30.4-3,8.49,8.51,8.49,8.51-8.72,2.49-9.09,4.48,2.25,3.71,12.65.93,15.57-11,20.46-5.9,7.79,9.83,13.13,9.94,8.79-6.15,15.46-21.68,30.76-36,31.8-53.67-8.83-39.87-8.83-39.87Z" style="fill:#92E3A9;stroke:#263238;stroke-linecap:round;stroke-linejoin:round"></path><path d="M243.25,194.42S227.5,198.09,215,205.83s-36.55,9.9-43.28,12.76a51.91,51.91,0,0,0-9.78,5.13" style="fill:none;stroke:#263238;stroke-linecap:round;stroke-linejoin:round"></path><path d="M165,270.12a62,62,0,0,0,12.36-17.41,68.12,68.12,0,0,1,27-29.44c12.83-7.4,19.17-7.6,31-15.35" style="fill:none;stroke:#263238;stroke-linecap:round;stroke-linejoin:round"></path><path d="M213.27,288.14s9-29.82,16.18-40" style="fill:none;stroke:#263238;stroke-linecap:round;stroke-linejoin:round"></path><path d="M238.49,357.35a55.41,55.41,0,0,1-6.36,17.21c-5.2,9.22-6.59,11.86-7.94,12.83s-4.06,2.59-1.4,3.31,10,.87,12.67-.07,2.39-2.95,3.47-6.59a5.08,5.08,0,0,1,4.08-3.92l-.23,11,2,0,.86-9.32s1.41-3.63,1.13-6-2.91-4.4-2.91-4.4l3.29-13.6Z" style="fill:#d9d9d9;stroke:#263238;stroke-linecap:round;stroke-linejoin:round"></path><path d="M244.78,391.16l.86-9.32s1.41-3.63,1.13-6c-.22-1.82-1.84-3.46-2.56-4.1-2.17,2.7-4.82,9.78-8.63,12.86a10.9,10.9,0,0,1-9.7,1.8l-.55-.24a5.56,5.56,0,0,1-1.14,1.2c-1.35,1-4.06,2.59-1.4,3.31s10,.87,12.67-.07,2.39-2.95,3.47-6.59a5.08,5.08,0,0,1,4.08-3.92l-.23,11Z" style="fill:#263238;stroke:#263238;stroke-linecap:round;stroke-linejoin:round"></path><path d="M313.05,358.92a55.19,55.19,0,0,0,5.64,17.46c4.8,9.43,6.08,12.13,7.39,13.16s3.94,2.75,1.26,3.36-10,.45-12.65-.6-2.27-3.05-3.2-6.74a5.08,5.08,0,0,0-3.91-4.08l-.23,11-2-.05-.47-9.34s-1.26-3.69-.88-6,3.09-4.27,3.09-4.27l-2.71-13.73Z" style="fill:#d9d9d9;stroke:#263238;stroke-linecap:round;stroke-linejoin:round"></path><path d="M305.35,392.43l-.47-9.34s-1.26-3.69-.88-6c.3-1.8,2-3.37,2.74-4,2.05,2.8,4.4,10,8.07,13.22a10.9,10.9,0,0,0,9.62,2.2l.56-.21a5.5,5.5,0,0,0,1.09,1.25c1.31,1,3.94,2.75,1.26,3.36s-10,.45-12.65-.6-2.27-3.05-3.2-6.74a5.08,5.08,0,0,0-3.91-4.08l-.23,11Z" style="fill:#263238;stroke:#263238;stroke-linecap:round;stroke-linejoin:round"></path><path d="M259.64,230.06s-13.81,31.76-15.73,44.06S235.77,360,235.77,360l13.32.62L268.88,276l3.66-15.6,30.82,103.67,11.36-.76s-12-78.27-16.63-97a273.38,273.38,0,0,0-12.27-36.71Z" style="fill:#263238;stroke:#263238;stroke-linecap:round;stroke-linejoin:round"></path><path d="M265.56,161.72s.05,14.7,0,16.49S249,184.85,249,184.85l10.69,45.21s14,1.19,26.18-.52l8-48.22-15-3,.6-11.81S270,166.3,265.56,161.72Z" style="fill:#d9d9d9;stroke:#263238;stroke-linecap:round;stroke-linejoin:round"></path><path d="M284,179.35c-1.09,4.09-4.65,14.36-12.84,13.32-7.08-.9-11.4-7.88-12.92-10.82-4.46,1.59-9.31,3-9.31,3l10.69,45.21s14,1.19,26.18-.52l8-48.22Z" style="fill:#fff;stroke:#263238;stroke-linecap:round;stroke-linejoin:round"></path><path d="M261.24,179.56s4,21.77,5,34,1,20.63.78,22.24-11.15,44.39-11.15,44.39l-19-8.29,19.17-42.43s-11-41.27-10.93-42.71S261.24,179.56,261.24,179.56Z" style="fill:#707070;stroke:#263238;stroke-linecap:round;stroke-linejoin:round"></path><path d="M257.63,181.09l-1.78,16.45,4,3.14-3,5.31,10,26s-.09-12.73-.81-21.17-4.9-31.28-4.9-31.28Z" style="fill:none;stroke:#263238;stroke-linecap:round;stroke-linejoin:round"></path><path d="M281.16,178.54s-2.76,54.79-2.78,55.32,15,46.2,15,46.2l14.8-4.71-19.61-47.54s9.36-44.62,9.2-45.51S281.16,178.54,281.16,178.54Z" style="fill:#707070;stroke:#263238;stroke-linecap:round;stroke-linejoin:round"></path><polygon points="285.45 179.71 287.43 198.59 282.45 201.37 287.12 205.38 278.38 233.86 281.16 178.54 285.45 179.71" style="fill:#707070;stroke:#263238;stroke-linecap:round;stroke-linejoin:round"></polygon><path d="M281.18,141.77a4.29,4.29,0,0,0-.15-.56c-.35-1.08-1.39-3.25-4-2-3.37,1.6-5.28,5.23-7.79,5.68a22.48,22.48,0,0,1-3.18.43s-3.85,8.43-5.72,9.89a11.27,11.27,0,0,1-4.37,1.91s.54,5.85,2.19,6.72a3.53,3.53,0,0,0,3.34-.26s4.72,5.77,7.86,7.33,6.63,2,8.48,1,7.16-7,7.23-10.36-1.42-11.71-1.69-15A6.41,6.41,0,0,0,281.18,141.77Z" style="fill:#d9d9d9;stroke:#263238;stroke-linecap:round;stroke-linejoin:round"></path><path d="M270.39,139s.49.34-.2,1.5a11.22,11.22,0,0,1-2.05,2.29s3.34-.26,4.73-2.74S272.43,137.25,270.39,139Z" style="fill:#fff"></path><path d="M271.29,150.81c.15.86-.13,1.63-.63,1.72s-1-.54-1.17-1.4.13-1.63.63-1.72S271.14,150,271.29,150.81Z" style="fill:#263238"></path><path d="M279.83,149.66c.15.86-.14,1.63-.64,1.72s-1-.55-1.17-1.41.13-1.63.63-1.72S279.67,148.79,279.83,149.66Z" style="fill:#263238"></path><line x1="267.53" y1="148.16" x2="272.39" y2="147.09" style="fill:none;stroke:#263238;stroke-linecap:round;stroke-linejoin:round"></line><path d="M276.59,145.68s1.56-2.64,3.71-1.93" style="fill:none;stroke:#263238;stroke-linecap:round;stroke-linejoin:round"></path><path d="M276.45,160.19s-5.53,1.05-7-2.15" style="fill:none;stroke:#263238;stroke-linecap:round;stroke-linejoin:round"></path><path d="M277.3,152.65s.89,3.1-1.92,3.4" style="fill:none;stroke:#263238;stroke-linecap:round;stroke-linejoin:round"></path><path d="M300.72,237.2s-8.38,6.28-8.41,7.89,1.53,4,2.05,4.52,2.11,2,2.11,2,4.32-1,4.18-2.78S300,247,300,247l3.53-6Z" style="fill:#d9d9d9;stroke:#263238;stroke-linecap:round;stroke-linejoin:round"></path><line x1="299.97" y1="247.04" x2="297.96" y2="248.97" style="fill:none;stroke:#263238;stroke-linecap:round;stroke-linejoin:round"></line><path d="M293.14,196.9l20.54,20.68-14.21,19.06,4.55,5.29s22.72-23.54,22.76-25.51-25.31-32.07-26.9-33.18-5.16-1.73-5.16-1.73" style="fill:#707070;stroke:#263238;stroke-linecap:round;stroke-linejoin:round"></path><path d="M245.37,236.25s8.94,5.44,9.13,7-1.13,4.11-1.6,4.7S251,250.2,251,250.2s-4.39-.56-4.43-2.36.5-1.86.5-1.86L243,240.33Z" style="fill:#d9d9d9;stroke:#263238;stroke-linecap:round;stroke-linejoin:round"></path><line x1="247.06" y1="245.98" x2="249.25" y2="247.7" style="fill:none;stroke:#263238;stroke-linecap:round;stroke-linejoin:round"></line><path d="M252.06,198.72l-20.65,18.92,15.14,17.93-4,5.71s-24.06-21.56-24.29-23.52,26-31.93,27.65-33,5.23-1.5,5.23-1.5" style="fill:#707070;stroke:#263238;stroke-linecap:round;stroke-linejoin:round"></path><path d="M262.77,188.88s2.92-7.32,2.51-9.64-4.35-1.71-6.68-.83-5.63,4.27-5.63,4.27,6.24-.34,7.17-.78S262.56,188,262.77,188.88Z" style="fill:#92E3A9;stroke:#263238;stroke-linecap:round;stroke-linejoin:round"></path><path d="M278.84,178.31l1.67,11.87s1.72-5,3.85-7.54a12.61,12.61,0,0,1,3.53-3.15S282.93,177.42,278.84,178.31Z" style="fill:#92E3A9;stroke:#263238;stroke-linecap:round;stroke-linejoin:round"></path></g></svg>